<?xml version="1.0" encoding="UTF-8" standalone="no"?>
<!-- Created with Inkscape (http://www.inkscape.org/) -->

<svg
   width="88.077545mm"
   height="77.428802mm"
   viewBox="0 0 88.077545 77.428802"
   version="1.1"
   id="svg1"
   xml:space="preserve"
   xmlns="http://www.w3.org/2000/svg"
   xmlns:svg="http://www.w3.org/2000/svg"><defs
     id="defs1" /><g
     id="layer1"
     transform="translate(-127.96095,-200.29324)"><path
       id="path8-2-1-1-8"
       style="fill:#e21010;fill-opacity:1;stroke-width:0.366822;paint-order:stroke fill markers"
       d="m 155.2944,200.29324 c -2.21243,0.002 -4.41727,0.17328 -6.54078,0.0426 -0.97852,3.47806 -1.96118,7.16002 -2.88065,10.63007 -0.1291,0.48896 -0.80696,3.05147 -0.93642,3.54033 0.1662,-0.62885 -1.10342,4.16965 -0.9372,3.5408 -0.42588,1.60568 -0.83872,3.14506 -1.25385,4.69721 -1.38187,5.15169 -2.80261,10.31032 -4.18417,15.46397 l -10.60038,39.51381 h 3.4848 l 8.56421,-31.36631 c 1.29261,-0.0604 2.6004,-0.13575 3.90939,-0.12511 1.9394,0.0157 3.77663,0.20004 5.63895,0.6954 l 0.0328,0.009 v 0 c 2.85978,0.76035 5.1581,1.33533 7.20348,1.2258 0.70931,-0.038 1.36271,-0.16431 1.96859,-0.36102 -1.04187,3.82528 -2.114,7.79023 -3.00691,11.35021 3.29296,1.57812 6.41538,3.93915 9.94463,5.26239 0.091,-0.33251 1.99216,-7.36384 2.08252,-7.69653 0.615,0.21823 1.2333,0.41305 1.86271,0.5846 0.0824,0.0217 0.16477,0.043 0.24729,0.0636 0.50908,0.13215 1.01916,0.24767 1.53383,0.34832 -0.67948,2.51743 -1.3871,5.12071 -2.10272,7.71075 3.70505,0.68796 7.59223,0.18596 11.23033,0.39372 0.67292,-2.48201 1.40421,-5.23339 2.1409,-7.98638 3.10234,-0.0518 6.27841,-0.18681 9.28894,0.58859 0.0696,0.0179 0.13901,0.0361 0.20841,0.0547 1.16253,0.31301 2.27211,0.7264 3.36869,1.23271 -0.0223,-0.0106 -0.0447,-0.0211 -0.0671,-0.0316 0,0 0.50068,0.24133 1.2745,0.52631 0.74707,0.27513 1.84218,0.62894 2.92559,0.71901 v -7.4e-4 c 1.31968,0.1097 2.61236,-0.20286 3.76704,-1.10731 1.14065,-0.89347 2.10609,-2.34614 2.61499,-4.2508 0,0.001 3.34075,-12.50391 3.91897,-14.6681 l 2.24591,-8.36303 c -2.17379,-0.6619 -4.62539,-1.97793 -6.76921,-2.95392 -0.0212,0.0786 1.02153,-3.77457 1.00033,-3.69595 2.11765,0.99789 4.58986,2.38648 6.72247,3.10718 0.93416,-3.47217 1.92408,-7.16069 2.84322,-10.64752 -3.24928,-1.66352 -6.3389,-4.13011 -9.8851,-5.4456 -0.53226,-0.19744 -1.06967,-0.37225 -1.61648,-0.52394 -0.0693,-0.0193 -0.13858,-0.0379 -0.20804,-0.0565 -0.60205,-0.1598 -1.20824,-0.28987 -1.82283,-0.39287 -1.39926,-0.23447 -2.82335,-0.29444 -4.24871,-0.28794 v 1e-4 9e-5 c -2.37562,0.0108 -4.75488,0.20634 -7.02901,0.0863 h -9e-5 c -0.81522,3.13633 -1.70325,6.43768 -2.55924,9.61299 -0.0965,-0.0727 -0.19174,-0.1463 -0.29517,-0.21392 -1.21643,-0.79547 -2.82194,-1.18723 -4.87766,-1.36636 -1.16255,-0.10129 -2.29321,-0.28231 -3.42005,-0.56868 -0.0823,-0.0209 -0.16434,-0.0425 -0.24634,-0.0644 -1.8755,-0.50255 -3.57416,-1.25501 -5.28247,-2.20269 -1.06406,-0.59027 -2.09124,-1.24367 -3.1125,-1.8847 0.0851,-0.31628 0.17117,-0.63292 0.25563,-0.94771 0.62866,-2.34617 1.26503,-4.74773 1.86793,-7.11515 -2.17406,-1.09157 -4.24691,-2.57041 -6.47141,-3.77548 -1.12103,-0.60729 -2.24756,-1.13827 -3.43815,-1.5743 -0.58096,-0.21276 -1.16745,-0.39933 -1.76482,-0.55939 h -9e-5 c -0.61931,-0.16595 -1.24278,-0.30142 -1.87503,-0.40955 -1.24995,-0.2138 -2.49133,-0.31372 -3.766,-0.34585 -0.31616,-0.008 -0.6324,-0.0111 -0.94847,-0.0108 z m -3.85973,3.77017 c 1.27619,0.0132 2.4655,0.011 3.76021,0.0733 0,0 2.51983,0.18192 3.76259,0.40434 0,0 0.90687,0.15757 1.88157,0.41798 h 10e-5 c 0.67411,0.18101 1.26924,0.37503 1.77439,0.55579 0,0 0.59557,0.20926 1.32265,0.51655 0.79328,0.33528 1.51644,0.68584 2.14176,1.00657 0,0 0.5616,0.28739 1.25081,0.66583 0.69773,0.38314 1.49566,0.83942 2.0445,1.14911 0,0 -0.65473,2.46956 -0.98343,3.69558 0,0 -2.17911,-1.16099 -3.3211,-1.71931 0,0 -2.2877,-1.05877 -3.48024,-1.47706 0,0 -0.82893,-0.29569 -1.77874,-0.55134 -0.69896,-0.18652 -1.33398,-0.32244 -1.8831,-0.42442 0,0 -0.62051,-0.11856 -1.40247,-0.22292 -0.85242,-0.11378 -1.6529,-0.18311 -2.35063,-0.23023 0,0 -0.66991,2.50068 -1.00003,3.73946 0,0 2.53681,0.0989 5.62274,0.92117 h 1.8e-4 c 1.59443,0.4295 3.08377,0.99092 4.64443,1.69685 1.30656,0.591 2.83072,1.37083 3.80779,1.85106 -0.32902,1.19309 -0.65852,2.4056 -0.98684,3.62952 -0.11775,-0.0567 -0.97595,-0.47017 -2.46561,-1.16855 -1.67805,-0.78669 -3.65085,-1.65347 -5.99732,-2.286 v 0 c -2.09178,-0.55708 -3.9983,-0.79953 -5.60873,-0.9533 0,0 -0.6505,2.44276 -0.97007,3.64107 0,0 -0.64101,2.40198 -0.95908,3.59047 v 9e-5 c -0.005,-7.3e-4 -0.011,-10e-4 -0.0163,-0.002 -0.0149,-0.002 -0.61153,-0.0647 -1.36995,-0.13639 -0.88129,-0.0833 -1.54964,-0.14384 -2.26448,-0.22396 -0.006,-5.5e-4 -0.0119,-0.001 -0.0174,-0.002 0,0 0.63385,-2.37624 0.95168,-3.57227 0,0 0.63625,-2.39628 0.95596,-3.60222 0,0 0.63918,-2.41181 0.96325,-3.63188 0,0 1.29455,-4.86319 1.97171,-7.35135 z m 42.53415,11.35202 c 2.60889,0.008 4.88449,-0.0291 7.47948,0.42746 0.60885,0.10711 1.20974,0.2381 1.80784,0.39608 0.0691,0.0181 0.13821,0.0363 0.20728,0.0548 0.54515,0.14986 1.08188,0.32026 1.61449,0.51171 2.48661,0.89375 4.47035,2.0706 6.74798,3.37541 -0.0139,0.0511 -0.98996,3.64224 -1.00382,3.6934 -2.3314,-1.23007 -4.28432,-2.33805 -6.79422,-3.21675 -1.00917,3.7157 -2.07031,7.65967 -3.01847,11.19118 2.58543,0.86277 4.40777,1.82328 6.86512,2.9253 -0.003,0.011 -0.95755,3.56229 -0.9605,3.57331 -2.47258,-1.08743 -4.26749,-2.02642 -6.86039,-2.88767 -0.004,-0.001 -0.008,-0.003 -0.0112,-0.004 -0.53244,-0.17666 -1.06573,-0.33738 -1.60635,-0.483 -0.0685,-0.0176 -0.13692,-0.0348 -0.20529,-0.052 -0.59051,-0.15481 -1.18049,-0.28945 -1.77788,-0.40803 -2.59743,-0.51562 -4.53293,-0.60464 -7.10246,-0.89122 -0.0658,-0.009 -0.13141,-0.0192 -0.19715,-0.0283 0.0239,-0.0892 0.93358,-3.49237 0.95368,-3.56743 2.663,0.28396 4.65617,0.35562 7.31126,0.87871 0.57921,-2.1619 2.41569,-9.03969 2.99486,-11.20161 -2.60132,-0.47669 -4.80052,-0.48415 -7.41191,-0.58792 0.32242,-1.22627 0.64616,-2.46235 0.96828,-3.69899 z m -23.43887,2.96776 c 1.05659,0.60343 2.04827,1.18208 3.15068,1.75656 1.73533,0.90427 3.44155,1.63225 5.32855,2.13796 0.0824,0.0217 0.16496,0.0427 0.24757,0.0633 1.12845,0.28676 2.25392,0.4776 3.40963,0.59854 2.53884,0.26568 3.9014,1.47042 4.26747,2.80293 0.15128,0.55073 0.1668,1.08475 0.13905,1.52028 -0.17255,0.63888 -0.33913,1.26172 -0.50453,1.87484 -0.20579,0.43761 -0.50361,0.97359 -0.96391,1.52483 -0.25363,0.30371 -0.575,0.61101 -0.95216,0.89738 0.21084,0.32869 0.35607,0.67058 0.43798,1.00135 0.14889,0.6012 0.15388,1.17648 0.11744,1.63354 -0.20627,0.76905 -0.40158,1.48748 -0.62167,2.31074 -0.0304,0.1056 -0.56045,2.01074 -1.0406,3.86476 -1.20784,-0.136 -2.33292,-0.23194 -3.54545,-0.37021 -0.10942,0.40834 1.51335,-5.62125 1.40323,-5.2131 0,0 0.10953,-0.50328 -0.0108,-0.97567 -0.12415,-0.48705 -0.13876,-0.7811 -1.3744,-0.95558 -1.14012,-0.16098 -2.24941,-0.3716 -3.37559,-0.65976 -0.0825,-0.0206 -0.16505,-0.0412 -0.24757,-0.0624 -0.63047,-0.16931 -1.25005,-0.3594 -1.86756,-0.57114 -1.21084,-0.41518 -2.34997,-0.891 -3.50799,-1.41782 -0.0399,0.14907 -0.87504,3.29046 -0.91482,3.43957 -0.0139,0.0524 -0.9168,3.43704 -0.93085,3.48943 -1.14694,-0.50183 -2.27061,-1.03033 -3.39,-1.51165 -0.0267,0.0997 0.96221,-3.61428 0.93567,-3.51454 -0.13824,0.52304 1.0627,-4.00943 0.92412,-3.48649 0.33606,-1.26932 0.68925,-2.57697 1.0419,-3.90571 0.0442,0.0124 1.30651,-4.28691 1.84462,-6.27198 z m -15.58916,1.15082 c 0.63077,0.12499 1.25368,0.26856 1.87702,0.43456 2.99578,0.80758 5.7225,2.26254 8.47601,3.44384 -0.34109,1.29133 -0.69397,2.61809 -1.01586,3.84116 0.15075,-0.57287 -0.77084,2.92433 -0.84659,3.21116 -0.37272,-0.76363 -0.79301,-1.52588 -1.31136,-2.257 -1.41685,-1.99844 -3.45829,-3.87549 -6.26773,-4.63959 l -9e-5,-1e-4 c -0.011,-0.003 -0.0218,-0.006 -0.0328,-0.009 -0.62468,-0.16568 -1.23584,-0.29908 -1.84452,-0.42035 z m 34.90528,3.02936 c 1.9198,0.24695 4.02932,0.31012 5.87172,0.46026 0,0.002 -0.98132,3.70036 -0.98173,3.70202 -1.23736,-0.11781 -2.57905,-0.20336 -3.90694,-0.33344 0.0115,-0.62097 -0.0326,-1.31748 -0.20614,-2.03777 -0.15604,-0.64784 -0.41352,-1.25108 -0.77691,-1.79107 z m -17.04036,0.8572 c 0.17677,-0.66681 -1.06358,4.00276 -0.88628,3.33541 1.15285,0.54359 2.2922,1.03198 3.50119,1.45288 0.61712,0.21487 1.23709,0.40669 1.8682,0.57598 0.0826,0.0214 0.16515,0.0423 0.24785,0.0625 1.1274,0.28774 2.24159,0.49333 3.38584,0.64413 1.22595,0.16157 1.44029,-0.17124 1.78935,-0.5738 0.36097,-0.41626 0.51684,-0.90013 0.51684,-0.90013 0,0 0.10482,-0.48733 -0.0228,-0.93917 -0.13255,-0.46966 -0.14964,-0.74286 -1.39915,-0.89227 -1.14951,-0.13744 -2.26919,-0.33651 -3.39757,-0.62375 -0.0827,-0.0203 -0.16535,-0.0413 -0.24796,-0.0626 -1.89362,-0.50759 -3.60059,-1.21307 -5.35545,-2.0791 z m -27.17017,2.36865 c 2.31061,0.28029 4.69582,0.38596 7.06435,0.82392 0.71695,0.13485 1.43545,0.28739 2.17236,0.48272 0.011,0.003 0.0219,0.006 0.0328,0.009 h 1.1e-4 c 2.11726,0.57708 3.61681,1.85363 4.62782,3.23239 1.01404,1.3829 1.57935,2.92222 1.80662,4.22464 0.22789,1.30619 0.20052,2.47285 0.11534,3.31977 -0.002,0.007 -0.003,0.0127 -0.005,0.0192 0.002,3.7e-4 0.002,7.3e-4 0.004,0.001 -0.087,0.85173 -0.23201,1.37337 -0.23201,1.37337 0,0 -0.52404,2.11743 -2.10592,3.67254 -0.79797,0.78445 -1.89948,1.35393 -3.34803,1.51743 -1.46948,0.16587 -3.17205,-0.0889 -5.33593,-0.6646 h -9e-5 l -0.0329,-0.009 c -1.8732,-0.49718 -3.70021,-0.70682 -5.63366,-0.77473 -1.29992,-0.0457 -2.49279,-0.025 -3.77168,-0.0199 1.48119,-5.5987 3.06431,-11.33942 4.64234,-17.20782 z m 2.73772,3.82116 c -0.58963,2.19343 -2.14625,7.9435 -2.73517,10.13712 1.92637,0.11176 3.7397,0.34203 5.61887,0.84023 l 0.033,0.009 v 9e-5 c 3.10527,0.82724 4.14057,0.39952 5.22666,-0.65891 0.98717,-0.96198 1.36625,-2.29055 1.36625,-2.29055 0,0 0.33637,-1.35131 0.027,-2.9452 -0.28757,-1.48154 -0.9577,-3.31327 -3.93508,-4.12484 h -1e-4 c -0.011,-0.003 -0.0218,-0.006 -0.0327,-0.009 -1.88383,-0.4993 -3.65864,-0.76502 -5.56852,-0.95775 z m 2.80731,3.942 c 0.62121,0.12019 1.23494,0.25978 1.8484,0.42234 0.011,0.003 0.0221,0.006 0.0329,0.009 h 9e-5 c 0.99535,0.27186 1.13135,0.50274 1.13757,0.50982 0.006,0.007 0.0486,0.0138 0.15931,0.50072 0.12103,0.53224 0.028,1.14352 0.0185,1.20997 -0.0246,0.0613 -0.24559,0.62493 -0.60687,0.99083 -0.33078,0.335 -0.36983,0.31631 -0.37865,0.31856 -0.009,0.002 -0.2264,0.0758 -1.22486,-0.18966 l -9e-5,-9e-5 -0.033,-0.009 c -0.61419,-0.16267 -1.22935,-0.30099 -1.8521,-0.41826 0.12586,-0.46968 0.7726,-2.87474 0.89881,-3.34432 z m 22.43418,1.42493 v 1.8e-4 c 0.61753,0.20955 1.23643,0.39855 1.86623,0.56774 0.0824,0.0213 0.16487,0.0419 0.24729,0.0623 0.50829,0.13038 1.01615,0.24649 1.52814,0.3503 0.005,-0.0201 -0.46555,1.73752 -0.93093,3.47436 -0.50802,-0.10402 -1.01542,-0.21881 -1.52701,-0.3503 -0.0823,-0.0205 -0.16476,-0.0411 -0.24709,-0.0624 -0.63541,-0.17083 -1.254,-0.35992 -1.8665,-0.56669 0.47998,-1.79131 0.95823,-3.58343 0.9293,-3.4755 z m 14.61683,2.19445 c 1.20257,0.1474 2.40868,0.25948 3.61406,0.38177 -0.003,0.0116 -0.97243,3.41058 -1.3816,5.13557 -0.19264,0.81219 -0.0403,1.1643 0.18462,1.43213 0.22517,0.26817 0.63115,0.47008 1.17594,0.54404 1.22566,0.1664 2.40829,0.38787 3.60914,0.7009 0.0685,0.0172 0.1371,0.0344 0.20568,0.052 1.78492,0.47903 3.39838,1.10999 5.08751,1.87684 -0.0575,0.21469 1.87539,-7.03691 1.83854,-6.89933 1.13535,0.51045 2.26032,1.03685 3.3921,1.52207 -1.10368,4.12611 -2.16878,8.13442 -3.22633,12.13784 -0.60272,2.28168 -2.34944,3.12489 -3.73889,3.07467 -1.38433,-0.05 -2.60513,-0.62953 -2.60513,-0.62953 -1.10199,-0.48695 -2.20977,-0.88874 -3.36895,-1.2001 -0.0691,-0.0181 -0.13831,-0.0359 -0.20758,-0.0533 -3.20479,-0.82786 -5.93507,-0.79752 -9.20022,-0.82857 0.3067,-1.14838 0.62013,-2.30922 0.90981,-3.39408 3.27854,0.14519 5.91397,0.15408 9.14259,0.99074 0.0689,0.0173 0.13776,0.035 0.20671,0.0527 1.15642,0.31024 2.26193,0.7025 3.36801,1.17319 0,0 0.51105,0.1941 1.01424,0.18482 0.50425,-0.009 0.843,0.0504 1.13566,-1.06249 -0.005,0.0173 0.44635,-1.69432 0.44179,-1.67704 -1.68062,-0.7886 -3.29991,-1.43324 -5.08526,-1.91238 -0.0687,-0.0177 -0.13737,-0.0353 -0.20615,-0.0522 -1.20319,-0.31275 -2.39188,-0.52914 -3.62211,-0.6846 -1.29174,-0.16324 -2.56177,-0.61468 -3.39305,-1.56312 -0.75013,-0.85585 -1.06085,-2.12045 -0.8369,-3.54118 z m 7.27248,0.88685 c 0.597,0.11844 1.18658,0.25302 1.77676,0.40746 0.0684,0.0172 0.13684,0.0344 0.20529,0.0519 0.54068,0.14526 1.07396,0.30588 1.60642,0.48234 0,1.1e-4 -2e-5,1.8e-4 0.002,3.7e-4 -0.4659,1.74086 -0.93742,3.50292 -0.9319,3.48232 -0.53258,-0.17715 -1.06626,-0.33804 -1.60728,-0.48338 -0.0685,-0.0176 -0.13695,-0.0347 -0.20538,-0.0519 -0.59143,-0.15452 -1.18247,-0.28878 -1.78092,-0.40632 0.39956,-1.49063 0.91235,-3.39958 0.91235,-3.39958 z m -27.60663,2.83299 c 0.6359,0.0174 1.32967,0.15418 2.06745,0.44603 l -1.1e-4,1.9e-4 c 0.58746,0.23239 1.17128,0.44753 1.76054,0.64668 0.005,0.002 0.009,0.003 0.0136,0.005 l 1.1e-4,-1e-4 c 0.6121,0.20657 1.23025,0.3957 1.86518,0.5666 0.0823,0.0213 0.1647,0.0419 0.247,0.0624 0.51159,0.13169 1.0189,0.24665 1.5269,0.35097 v 0.002 c 0.0149,0.003 0.0296,0.005 0.0444,0.008 0.59358,0.12107 1.18827,0.22663 1.792,0.31847 2.46655,0.3752 3.77078,1.89626 4.09575,3.32773 0.15309,0.67439 0.14546,1.31788 0.0979,1.80566 -0.8237,3.0918 -1.67768,6.29335 -2.52058,9.35007 0.0382,0.002 0.0774,0.002 0.11562,0.004 -0.39538,1.48651 -0.79001,2.98257 -1.1439,4.30189 -1.26709,-0.0186 -2.45318,-0.0265 -3.73577,-0.10161 0.67948,-2.50964 1.36645,-5.07955 2.01835,-7.52526 -1.7863,-0.16485 -3.46986,-0.41466 -5.2311,-0.87018 -0.0825,-0.0206 -0.16482,-0.042 -0.2473,-0.0633 -1.89318,-0.51359 -3.59568,-1.19497 -5.36759,-2.0175 -0.65612,2.43733 -1.34523,5.00038 -2.01189,7.5012 -1.16061,-0.58882 -2.19392,-1.17353 -3.31921,-1.78936 1.07116,-4.06933 2.35983,-8.81402 3.42592,-12.75733 0,0 0.32005,-1.2854 1.29754,-2.33064 0.69151,-0.73941 1.81036,-1.27947 3.20927,-1.24134 z m 0.14378,3.78893 c -0.36827,-0.002 -0.51964,0.1936 -0.74573,0.43381 -0.35245,0.37438 -0.51873,0.89273 -0.51873,0.89273 0.0425,-0.15855 -0.53299,1.98071 -0.49049,1.82216 1.78068,0.80136 3.47833,1.46824 5.3746,1.9809 0.0824,0.0213 0.16479,0.0423 0.2472,0.0628 1.76238,0.45487 3.43461,0.71197 5.21575,0.89681 0.0436,-0.16288 0.44303,-1.66334 0.48631,-1.82632 0,0 0.11559,-0.53285 0.002,-1.03415 -0.11405,-0.50188 -0.13103,-0.83323 -1.3582,-1.01737 -1.13639,-0.17051 -2.24115,-0.38665 -3.36546,-0.67644 -0.0824,-0.0202 -0.16474,-0.0412 -0.24709,-0.0625 -1.25101,-0.33749 -2.43801,-0.74533 -3.63955,-1.22409 v -1.8e-4 c -0.44017,-0.17539 -0.73915,-0.24711 -0.96012,-0.24804 z" /></g></svg>
